<svg width="190" height="186" viewBox="0 0 190 186" fill="none" xmlns="http://www.w3.org/2000/svg">
<rect width="190" height="186" rx="15" fill="#070707"/>
<rect x="8" y="8" width="174" height="170" rx="15" fill="#FFFCFC"/>
<path d="M86.1094 137.469C86.1094 143.281 85.25 147.797 83.5312 151.016C80.3438 156.891 74.2812 159.828 65.3438 159.828C60.1875 159.828 55.7812 158.438 52.125 155.656C48.4688 152.844 46.6406 147.859 46.6406 140.703V135.781H55.4062V140.703C55.4062 144.453 56.2344 147.281 57.8906 149.188C59.5781 151.062 62.1875 152 65.7188 152C70.6875 152 73.9375 150.297 75.4688 146.891C76.4062 144.797 76.875 140.844 76.875 135.031V89.1406H86.1094V137.469ZM119.109 152.562C124.703 152.562 128.531 150.453 130.594 146.234C132.688 141.984 133.734 137.266 133.734 132.078C133.734 127.391 132.984 123.578 131.484 120.641C129.109 116.016 125.016 113.703 119.203 113.703C114.047 113.703 110.297 115.672 107.953 119.609C105.609 123.547 104.438 128.297 104.438 133.859C104.438 139.203 105.609 143.656 107.953 147.219C110.297 150.781 114.016 152.562 119.109 152.562ZM119.438 106.344C125.906 106.344 131.375 108.5 135.844 112.812C140.312 117.125 142.547 123.469 142.547 131.844C142.547 139.938 140.578 146.625 136.641 151.906C132.703 157.188 126.594 159.828 118.312 159.828C111.406 159.828 105.922 157.5 101.859 152.844C97.7969 148.156 95.7656 141.875 95.7656 134C95.7656 125.562 97.9062 118.844 102.188 113.844C106.469 108.844 112.219 106.344 119.438 106.344Z" fill="black"/>
<path d="M166.826 22.25V25.0098C166.018 25.7949 164.939 27.1602 163.592 29.1055C162.256 31.0508 161.072 33.1484 160.041 35.3984C159.021 37.5898 158.248 39.5879 157.721 41.3926C157.381 42.5527 156.941 44.4219 156.402 47H152.904C153.701 42.1953 155.459 37.4141 158.178 32.6562C159.783 29.8672 161.471 27.459 163.24 25.4316H149.318V22.25H166.826Z" fill="black"/>
</svg>
